<svg xmlns="http://www.w3.org/2000/svg" xmlns:xlink="http://www.w3.org/1999/xlink" width="1200" height="400" viewBox="0 0 1200 400" role="img" aria-label="Havlen, my startup: an AI receptionist for WhatsApp and the web that replies in English or Roman Urdu, books real appointments and hands over to staff."><title>Havlen, my startup: an AI receptionist for WhatsApp and the web that replies in English or Roman Urdu, books real appointments and hands over to staff.</title><style>.fade{animation:fade 1s ease-out both}@keyframes fade{from{opacity:0}}.msg{animation:up .6s cubic-bezier(.2,.7,.2,1) both}@keyframes up{from{opacity:0;transform:translateY(8px)}}@media (prefers-reduced-motion:reduce){*{animation:none!important}}</style><defs><path id="n68" d="M342 12L342 12Q298 12 263-3Q228-18 204-46L204-46Q189-63 179-83L179-83L176 0L82 0L82-710L183-710L183-457Q192-472 205-487L205-487Q228-512 264-528Q299-544 342-544L342-544Q410-544 460-511Q510-477 537-415Q564-352 564-266Q564-180 537-118Q510-55 460-22Q410 12 342 12ZM325-81L325-81Q388-81 423-131Q458-180 458-266L458-266Q458-353 423-402Q388-451 327-451L327-451Q282-451 250-429Q218-407 201-366Q183-325 183-266L183-266Q183-209 201-168Q218-126 250-104Q281-81 325-81Z"/><path id="n96" d="M300 12L300 12Q226 12 171-22Q115-56 85-119Q54-182 54-266L54-266Q54-351 85-414Q115-476 171-510Q226-544 300-544L300-544Q374-544 430-510Q485-476 516-414Q546-351 546-266L546-266Q546-182 516-119Q485-56 430-22Q374 12 300 12ZM300-81L300-81Q367-81 404-130Q440-179 440-266L440-266Q440-353 404-402Q367-451 300-451L300-451Q233-451 197-402Q160-353 160-266L160-266Q160-179 197-130Q233-81 300-81Z"/><path id="n91" d="M181 0L80 0L80-710L181-710L181-264L421-532L550-532L342-306L559 0L440 0L275-238L181-139L181 0Z"/><path id="n73" d="M305 12L305 12Q230 12 175-22Q119-56 89-119Q58-182 58-266L58-266Q58-350 89-412Q119-474 174-509Q228-544 302-544L302-544Q372-544 427-511Q481-477 512-415Q542-352 542-264L542-264L542-236L163-236Q168-160 206-121Q243-81 306-81L306-81Q353-81 384-104Q415-126 427-162L427-162L532-155Q509-79 450-34Q391 12 305 12ZM164-317L164-317L432-317Q427-385 391-418Q355-451 301-451L301-451Q245-451 210-417Q174-383 164-317Z"/><path id="n71" d="M258 12L258 12Q190 12 140-22Q90-55 63-118Q36-180 36-266Q36-352 63-415Q90-477 140-511Q190-544 258-544L258-544Q302-544 337-528Q372-512 395-487L395-487Q408-472 417-457L417-457L417-710L518-710L518 0L424 0L421-82Q411-63 397-46L397-46Q372-18 337-3Q302 12 258 12ZM275-81L275-81Q319-81 351-104Q382-126 400-168Q417-209 417-266L417-266Q417-325 400-366Q382-407 350-429Q318-451 273-451L273-451Q212-451 177-402Q142-353 142-266L142-266Q142-180 177-131Q212-81 275-81Z"/><path id="n179" d="M368-238L232-238L232-370L368-370L368-238Z"/><path id="n69" d="M312 12L312 12Q238 12 182-23Q125-57 95-120Q64-182 64-266L64-266Q64-350 95-412Q125-474 182-509Q238-544 312-544L312-544Q373-544 421-522Q469-499 500-456Q531-413 541-353L541-353L438-346Q426-397 393-424Q360-451 313-451L313-451Q246-451 208-402Q169-352 169-266L169-266Q169-180 208-131Q246-81 313-81L313-81Q361-81 396-110Q430-138 441-194L441-194L544-188Q534-127 502-83Q470-38 422-13Q373 12 312 12Z"/><path id="n60" d="M228 12L228 12Q178 12 138-6Q98-24 75-57Q51-90 51-134L51-134Q51-202 93-240Q134-278 218-294L218-294L390-330Q390-392 363-423Q336-454 282-454L282-454Q232-454 204-431Q176-408 166-367L166-367L60-374Q75-450 133-497Q191-544 282-544L282-544Q384-544 438-486Q491-428 491-326L491-326L491-116Q491-98 499-91Q507-83 522-83L522-83L552-83L552 0Q546 1 533 2Q519 3 506 3L506 3Q470 3 445-9Q420-21 408-47L408-47Q401-60 397-76L397-76Q390-61 378-48L378-48Q353-20 314-4Q275 12 228 12ZM243-71L243-71Q291-71 324-88Q357-105 374-136Q390-167 390-209L390-209L390-250L242-220Q194-211 175-192Q156-173 156-142L156-142Q156-109 179-90Q202-71 243-71Z"/><path id="n92" d="M544 0L56 0L56-85L264-85L264-559Q264-590 247-608Q229-625 198-625L198-625L76-625L76-710L209-710Q286-710 326-671Q365-631 365-554L365-554L365-85L544-85L544 0Z"/><path id="n94" d="M181 0L80 0L80-532L173-532L175-436Q185-462 201-482L201-482Q226-513 263-529Q300-544 342-544L342-544Q402-544 441-518Q480-491 500-446Q520-400 520-343L520-343L520 0L419 0L419-317Q419-386 393-421Q366-456 313-456L313-456Q276-456 247-440Q217-424 199-393Q181-361 181-315L181-315L181 0Z"/><path id="n107" d="M486 0L84 0L84-85L219-85L219-447L84-447L84-532L299-532L305-429Q316-472 340-497L340-497Q373-532 433-532L433-532L546-532L546-444L437-444Q399-444 373-430Q347-415 334-387Q320-358 320-316L320-316L320-85L486-85L486 0Z"/><path id="n111" d="M254 12L254 12Q177 12 131-41Q85-93 85-188L85-188L85-532L186-532L186-214Q186-142 211-109Q236-76 287-76L287-76Q342-76 376-113Q409-150 409-218L409-218L409-532L510-532L510 0L415 0L414-88Q398-51 369-26L369-26Q324 12 254 12Z"/><path id="n104" d="M173 150L72 150L72-532L168-532L169-446Q189-487 224-512L224-512Q269-544 331-544L331-544Q408-544 457-506Q506-467 530-404Q554-341 554-266Q554-191 530-128Q506-65 457-27Q408 12 331 12L331 12Q290 12 255-2Q220-15 196-41L196-41Q182-54 173-71L173-71L173 150ZM312-81L312-81Q376-81 412-129Q448-177 448-266Q448-355 412-403Q376-451 312-451L312-451Q270-451 239-431Q208-410 191-369Q173-328 173-266Q173-204 190-163Q207-122 239-102Q270-81 312-81Z"/><path id="n110" d="M524 0L376 0Q295 0 256-38Q216-75 216-153L216-153L216-447L48-447L48-532L216-532L216-657L317-657L317-532L524-532L524-447L317-447L317-158Q317-121 335-103Q352-85 387-85L387-85L524-85L524 0Z"/><path id="s41" d="M80 0L211 0L211-300L502-300L502 0L633 0L633-710L502-710L502-414L211-414L211-710L80-710Z"/><path id="m41" d="M86 0L196 0L196-307L513-307L513 0L623 0L623-710L513-710L513-407L196-407L196-710L86-710Z"/><path id="m66" d="M53-371L164-364C179-423 219-454 280-454C357-454 395-414 396-329L245-300C123-276 44-245 44-139C44-45 129 12 235 12C323 12 382-31 405-81C410-7 476 1 524 0L558 0L558-85L536-85C515-85 504-94 504-120L504-317C504-462 425-542 280-542C158-542 74-478 53-371ZM156-141C156-208 214-214 286-227L398-247L398-242C398-128 337-71 258-71C189-71 156-103 156-141Z"/><path id="m87" d="M540-530L427-530L281-110L135-530L22-530L216 0L346 0Z"/><path id="m77" d="M75-710L75-119C75-46 123 0 194 0L261 0L261-88L218-88C194-88 183-100 183-123L183-710Z"/><path id="m70" d="M44-265C44-96 144 12 297 12C405 12 498-51 530-152L418-160C396-110 349-80 297-80C214-80 164-137 158-234L537-234L537-269C531-458 423-542 297-542C144-542 44-434 44-265ZM159-315C171-400 220-450 297-450C356-450 411-415 424-315Z"/><path id="m79" d="M75-530L75 0L183 0L183-308C183-401 231-451 308-451C381-451 409-401 409-308L409 0L517 0L517-341C517-457 456-542 336-542C264-542 203-511 175-439L172-530Z"/><path id="k96" d="M300 12L300 12Q227 12 173-22Q118-56 88-119Q58-181 58-265L58-265Q58-350 88-412Q118-474 173-508Q227-542 300-542L300-542Q373-542 428-508Q482-474 512-412Q542-350 542-265L542-265Q542-181 512-119Q482-56 428-22Q373 12 300 12ZM300-68L300-68Q373-68 414-121Q454-173 454-265L454-265Q454-357 414-410Q373-462 300-462L300-462Q227-462 187-410Q146-357 146-265L146-265Q146-173 187-121Q227-68 300-68Z"/><path id="k94" d="M168 0L84 0L84-530L161-530L163-435Q173-462 191-482L191-482Q217-512 254-527Q291-542 332-542L332-542Q393-542 434-515Q474-488 495-443Q516-397 516-341L516-341L516 0L432 0L432-317Q432-391 403-430Q374-468 314-468L314-468Q273-468 240-451Q207-433 188-400Q168-366 168-317L168-317L168 0Z"/><path id="k92" d="M540 0L60 0L60-74L273-74L273-568Q273-600 255-618Q237-636 205-636L205-636L80-636L80-710L209-710Q282-710 320-673Q357-635 357-562L357-562L357-74L540-74L540 0Z"/><path id="k81" d="M560 0L80 0L80-74L293-74L293-456L90-456L90-530L377-530L377-74L560-74L560 0ZM373-613L285-613L285-711L373-711L373-613Z"/><path id="k73" d="M306 12L306 12Q231 12 177-22Q122-56 93-119Q63-181 63-265L63-265Q63-349 93-411Q122-473 176-508Q229-542 302-542L302-542Q371-542 424-510Q477-477 507-415Q537-353 537-264L537-264L537-239L151-239Q156-154 197-111Q237-68 306-68L306-68Q358-68 392-93Q425-117 438-157L438-157L528-150Q507-79 449-34Q390 12 306 12ZM151-313L151-313L445-313Q439-390 400-426Q361-462 302-462L302-462Q241-462 202-425Q162-387 151-313Z"/><path id="k127" d="M550 0L50 0Q50-75 74-136Q97-196 157-251Q216-306 322-362L322-362Q371-388 401-410Q431-432 445-457Q459-482 459-518L459-518Q459-555 443-583Q427-610 396-626Q364-642 317-642L317-642Q242-642 199-603Q155-564 144-492L144-492L54-498Q66-602 134-664Q202-726 317-726L317-726Q390-726 442-700Q494-674 522-628Q549-581 549-520L549-520Q549-466 531-427Q513-387 471-353Q428-319 354-280L354-280Q290-246 247-211Q203-176 181-144Q158-111 156-84L156-84L550-84L550 0Z"/><path id="k128" d="M294 16L294 16Q179 16 117-40Q55-95 50-183L50-183L139-189Q145-124 188-96Q230-68 294-68L294-68Q337-68 375-81Q413-93 437-122Q460-150 460-198L460-198Q460-245 439-276Q418-306 382-321Q345-335 299-335L299-335L243-335L243-419L299-419Q336-419 367-430Q398-441 417-466Q435-490 435-530L435-530Q435-585 400-614Q365-642 299-642L299-642Q232-642 198-615Q163-588 156-541L156-541L66-547Q76-627 136-677Q196-726 299-726L299-726Q368-726 419-703Q470-679 498-636Q525-593 525-534L525-534Q525-468 484-428L484-428Q453-398 403-382L403-382Q461-367 499-328L499-328Q550-276 550-198L550-198Q550-130 517-82Q484-34 426-9Q368 16 294 16Z"/><path id="k172" d="M362 0L238 0L238-122L362-122L362 0ZM362-386L238-386L238-508L362-508L362-386Z"/><path id="k129" d="M474 0L388 0L388-154L40-154L40-232L382-710L474-710L474-238L560-238L560-154L474-154L474 0ZM388-590L128-238L388-238L388-590Z"/><path id="k132" d="M284 0L192 0Q192-110 223-220Q253-329 310-432Q367-535 446-626L446-626L60-626L60-710L540-710L540-632Q473-556 425-481Q376-406 345-330Q314-253 299-172Q284-90 284 0L284 0Z"/><path id="r44" d="M92-710L92 0L180 0L180-237L270-337L519 0L626 0L329-402L607-710L496-710L180-360L180-710Z"/><path id="r90" d="M22-530L215-10L244-10L225 39C215 64 200 74 175 74L114 74L114 150L184 150C244 150 282 124 302 67L516-530L425-530L272-92L114-530Z"/><path id="r66" d="M56-374L147-367C163-427 207-460 273-460C358-460 400-417 401-329L247-299C129-276 47-249 47-139C47-44 133 12 238 12C322 12 380-33 402-81C402-17 450 0 504 0L541 0L541-76L519-76C497-76 487-86 487-108L487-320C487-462 410-542 273-542C160-542 77-477 56-374ZM137-139C137-213 201-217 279-231L403-253L403-248C403-124 335-64 249-64C172-64 137-98 137-139Z"/><path id="r75" d="M181 3L181-530L95-530L95 3C95 46 72 74 37 74L-5 74L-5 150L47 150C136 150 181 92 181 3ZM93-613L183-613L183-710L93-710Z"/><path id="r81" d="M80 150L166 150L166-71C195-16 250 12 323 12C482 12 552-120 552-265C552-410 482-542 323-542C246-542 190-510 161-453L158-530L80-530ZM156-265C156-363 200-460 308-460C417-460 460-364 460-265C460-166 417-70 308-70C200-70 156-167 156-265Z"/><path id="r80" d="M290 12C437 12 533-96 533-265C533-434 437-542 290-542C143-542 47-434 47-265C47-96 143 12 290 12ZM137-265C137-387 193-460 290-460C387-460 443-387 443-265C443-143 387-70 290-70C193-70 137-143 137-265Z"/><path id="r74" d="M80-530L80 0L166 0L166-530ZM78-613L168-613L168-710L78-710Z"/><path id="r79" d="M80-530L80 0L166 0L166-317C166-414 221-466 305-466C384-466 416-414 416-317L416 0L502 0L502-341C502-453 444-542 323-542C250-542 188-510 161-439L158-530Z"/><path id="r85" d="M132-650L132-530L55-530L55-454L132-454L132-142C132-51 185 0 281 0L358 0L358-76L281-76C239-76 218-98 218-142L218-454L360-454L360-530L218-530L218-650Z"/><path id="r78" d="M80-530L80 0L166 0L166-317C166-410 214-466 295-466C358-466 396-410 396-317L396 0L482 0L482-317C482-412 529-466 611-466C675-466 712-412 712-317L712 0L798 0L798-341C798-469 736-542 629-542C546-542 491-503 468-432C445-502 390-542 313-542C240-542 186-506 161-442L158-530Z"/><path id="r70" d="M47-265C47-96 143 12 290 12C392 12 482-50 513-150L421-157C397-102 346-70 290-70C200-70 146-132 138-238L521-238L520-277C511-467 406-542 290-542C143-542 47-434 47-265ZM140-314C154-406 207-460 290-460C353-460 412-424 427-314Z"/><path id="r77" d="M80-710L80-104C80-42 122 0 184 0L244 0L244-76L198-76C176-76 166-86 166-108L166-710Z"/><path id="r84" d="M384-366L474-372C457-475 370-542 264-542C142-542 60-478 60-376C60-272 164-245 260-223C320-209 394-203 394-140C394-86 327-70 277-70C198-70 148-110 137-173L47-167C55-57 151 12 277 12C377 12 484-32 484-135C484-241 395-274 275-297C219-308 150-329 150-381C150-431 197-460 255-460C313-460 372-425 384-366Z"/><path id="r76" d="M80-710L80 0L166 0L166-135L268-246L438 0L544 0L327-305L534-530L417-530L166-247L166-710Z"/><path id="r73" d="M80-710L80 0L166 0L166-311C166-408 221-460 305-460C384-460 416-408 416-311L416 0L502 0L502-341C502-453 444-542 323-542C259-542 197-516 166-460L166-710Z"/><path id="r32" d="M237-204L325-204C325-273 342-307 396-344C483-403 520-458 520-527C520-644 422-726 282-726C158-726 59-629 47-500L139-494C150-580 206-640 287-640C373-640 429-593 428-527C428-461 381-442 330-399C259-341 237-292 237-204ZM224 0L333 0L333-110L224-110Z"/><path id="r43" d="M157-238L67-230C68-86 161 16 293 16C433 16 521-86 521-248L521-710L433-710L433-248C433-134 383-70 293-70C207-70 158-130 157-238Z"/><path id="r67" d="M80-710L80 0L158 0L161-74C190-21 254 12 328 12C466 12 552-95 552-265C552-435 466-542 328-542C257-542 195-511 166-462L166-710ZM158-265C158-387 217-464 310-464C403-464 462-387 462-265C462-145 403-70 310-70C217-70 158-145 158-265Z"/><path id="r86" d="M496 0L496-530L410-530L410-214C410-116 355-64 274-64C198-64 166-116 166-214L166-530L80-530L80-189C80-77 138 12 256 12C325 12 386-19 414-87L414 0Z"/><path id="r2" d="M68-710L68-480C68-388 79-297 84-205L140-205C145-297 156-388 156-480L156-710ZM54 0L163 0L163-110L54-110Z"/><path id="r22" d="M518-710L127-710L72-310L167-310C189-360 244-389 309-389C410-389 474-327 474-228C474-135 411-70 318-70C234-70 163-113 152-189L60-183C70-66 176 16 318 16C461 16 566-85 566-228C566-370 469-473 332-473C271-473 209-451 175-412L204-624L518-624Z"/><path id="r27" d="M92-110L92 0L201 0L201-110ZM92-353L201-353L201-463L92-463Z"/><path id="r17" d="M336 16C509 16 618-127 618-354C618-583 509-726 336-726C163-726 54-583 54-354C54-127 163 16 336 16ZM146-354C146-537 214-640 336-640C458-640 526-537 526-354C526-172 458-70 336-70C214-70 146-172 146-354Z"/><path id="r23" d="M469-551L561-558C529-667 441-726 333-726C128-726 60-526 60-313C60-202 85-112 136-60C188-6 251 16 313 16C460 16 564-81 564-236C564-382 469-484 328-484C252-484 189-449 150-385C164-549 228-640 333-640C399-640 448-608 469-551ZM156-236C157-331 226-398 322-398C410-398 472-331 472-236C472-139 407-70 315-70C220-70 154-139 156-236Z"/><path id="r20" d="M301-420L247-421L247-334L301-335C384-337 472-297 472-202C472-107 384-70 301-70C232-70 149-103 141-189L50-183C56-66 159 16 301 16C455 16 563-71 563-195C563-287 508-355 409-384C495-409 539-462 539-541C539-650 441-726 301-726C182-726 88-655 75-555L167-549C176-605 228-640 301-640C391-640 447-602 447-541C447-449 367-419 301-420Z"/><path id="k133" d="M300 16L300 16Q230 16 173-8Q116-32 83-79Q50-126 50-195L50-195Q50-272 96-323L96-323Q132-363 188-382L188-382Q149-399 122-427L122-427Q84-465 84-531L84-531Q84-587 112-631Q140-675 189-701Q237-726 300-726Q363-726 412-701Q461-675 489-631Q516-587 516-531L516-531Q516-465 479-427L479-427Q452-399 413-382L413-382Q468-363 505-323L505-323Q550-272 550-195L550-195Q550-126 517-79Q484-32 428-8Q371 16 300 16ZM300-68L300-68Q370-68 415-101Q460-133 460-200L460-200Q460-262 420-300Q380-337 300-337L300-337Q221-337 181-300Q140-262 140-200L140-200Q140-133 185-101Q230-68 300-68ZM300-417L300-417Q357-417 392-446Q426-474 426-531L426-531Q426-582 393-612Q359-642 300-642L300-642Q242-642 208-612Q174-582 174-531L174-531Q174-474 209-446Q243-417 300-417Z"/><path id="n125" d="M300 16L300 16Q222 16 165-29Q108-74 78-157Q48-240 48-354L48-354Q48-469 78-552Q108-635 165-681Q222-726 300-726L300-726Q379-726 436-681Q492-635 522-552Q552-469 552-354L552-354Q552-240 522-157Q492-74 436-29Q379 16 300 16ZM300-82L300-82Q345-82 377-115Q408-147 426-208Q443-269 443-354L443-354Q443-441 426-502L426-502Q425-505 424-508L424-508L216-123Q220-119 224-115L224-115Q256-82 300-82ZM176-202L384-587Q380-591 377-596L377-596Q345-628 300-628L300-628Q256-628 224-596Q192-563 175-502Q157-441 157-354L157-354Q157-269 175-208L175-208Q175-205 176-202L176-202Z"/><path id="n126" d="M544 0L56 0L56-99L273-99L273-506L91-506L91-595L181-595Q220-595 244-607Q268-618 279-643Q290-668 290-710L290-710L378-710L378-99L544-99L544 0Z"/><path id="n187" d="M580-246L20-246L20-338L580-338L580-246Z"/><path id="n32" d="M340-86L260-86L149-548L149 0L48 0L48-710L188-710L300-253L412-710L552-710L552 0L451 0L451-548L340-86Z"/><path id="n57" d="M353 0L248 0L248-292L37-710L153-710L300-400L447-710L563-710L353-292L353 0Z"/><path id="n47" d="M309 16L309 16Q232 16 175-15Q117-46 83-102Q49-157 43-231L43-231L151-238Q158-187 179-152Q200-117 234-100Q268-82 313-82L313-82Q357-82 387-94Q417-105 433-127Q449-149 449-181L449-181Q449-213 434-236Q419-259 380-279Q341-298 266-319L266-319Q193-339 147-365Q101-390 80-428Q59-465 59-520L59-520Q59-581 88-628Q116-674 170-700Q223-726 298-726L298-726Q372-726 425-697Q477-668 508-617Q538-565 545-496L545-496L437-490Q432-531 415-562Q397-593 367-611Q337-628 295-628L295-628Q236-628 202-600Q167-572 167-525L167-525Q167-495 181-475Q195-454 230-439Q265-423 328-405L328-405Q413-382 463-352Q513-321 535-280Q557-239 557-181L557-181Q557-123 526-78Q495-33 440-9Q384 16 309 16Z"/><path id="n48" d="M352 0L248 0L248-611L40-611L40-710L560-710L560-611L352-611L352 0Z"/><path id="n1" d="M133 0L24 0L232-710L368-710L576 0L467 0L416-185L184-185L133 0ZM211-282L389-282L300-601L211-282Z"/><path id="n46" d="M172 0L67 0L67-710L288-710Q401-710 466-653Q530-596 530-498L530-498Q530-447 508-408Q485-369 449-347L449-347Q430-336 410-329L410-329Q452-321 478-301L478-301Q514-270 520-202L520-202L538 0L433 0L417-182Q414-217 402-238Q390-259 365-268Q340-277 296-277L296-277L172-277L172 0ZM172-611L172-375L286-375Q352-375 387-406Q422-437 422-493L422-493Q422-550 387-581Q352-611 286-611L286-611L172-611Z"/><path id="n49" d="M300 16L300 16Q186 16 122-54Q58-124 58-247L58-247L58-710L163-710L163-243Q163-165 198-124Q233-82 300-82L300-82Q367-82 402-124Q437-165 437-243L437-243L437-710L542-710L542-247Q542-124 478-54Q414 16 300 16Z"/><path id="n43" d="M191 0L86 0L86-710L306-710Q380-710 436-683Q491-656 522-607Q552-557 552-489L552-489Q552-421 522-372Q491-322 436-296Q380-269 306-269L306-269L191-269L191 0ZM191-611L191-368L295-368Q371-368 407-399Q443-430 443-489L443-489Q443-549 407-580Q371-611 295-611L295-611L191-611Z"/><path id="n23" d="M522 0L78 0L78-99L248-99L248-611L78-611L78-710L522-710L522-611L352-611L352-99L522-99L522 0Z"/><path id="n15" d="M532 0L88 0L88-710L524-710L524-611L193-611L193-404L512-404L512-308L193-308L193-99L532-99L532 0Z"/><path id="n11" d="M303 16L303 16Q217 16 158-29Q98-74 67-157Q36-240 36-354L36-354Q36-469 67-552Q98-635 158-681Q217-726 303-726L303-726Q400-726 467-662Q533-598 554-483L554-483L444-477Q429-551 392-590Q354-628 303-628L303-628Q251-628 216-596Q181-564 163-503Q145-442 145-354L145-354Q145-267 163-207Q181-146 216-114Q251-82 303-82L303-82Q358-82 397-124Q436-166 449-247L449-247L558-242Q540-120 473-52Q406 16 303 16Z"/><path id="n35" d="M300 16L300 16Q215 16 157-27Q98-70 67-153Q36-236 36-354L36-354Q36-474 67-557Q98-640 157-683Q215-726 300-726L300-726Q385-726 444-683Q503-640 534-557Q564-474 564-354L564-354Q564-236 534-153Q503-70 444-27Q385 16 300 16ZM300-82L300-82Q350-82 385-112Q419-142 437-203Q455-264 455-354L455-354Q455-444 437-506Q419-567 385-598Q350-628 300-628L300-628Q250-628 216-598Q181-567 163-506Q145-444 145-354L145-354Q145-264 163-203Q181-142 216-112Q250-82 300-82Z"/><path id="n33" d="M171 0L68 0L68-710L196-710L429-150L429-710L532-710L532 0L404 0L171-560L171 0Z"/><path id="s66" d="M50-369L182-361C195-419 231-449 287-449C356-449 390-410 391-330L242-300C118-275 42-242 42-139C42-45 126 12 232 12C324 12 384-28 408-80C418 2 503 1 544 1L574 0L574-94L554-94C534-94 521-102 521-133L521-314C521-463 440-542 287-542C157-542 71-478 50-369ZM175-143C175-204 226-211 293-224L393-242L393-236C393-131 339-79 267-79C205-79 175-107 175-143Z"/><path id="s87" d="M565-530L430-530L293-131L155-530L21-530L217 0L369 0Z"/><path id="s77" d="M70-710L70-133C70-49 124 0 203 0L278 0L278-101L237-101C213-101 200-114 200-139L200-710Z"/><path id="s70" d="M42-265C42-97 146 12 304 12C419 12 515-51 546-153L414-163C395-117 352-90 304-90C229-90 183-142 177-230L554-230L553-262C551-450 440-542 304-542C146-542 42-433 42-265ZM179-316C189-393 234-440 304-440C360-440 410-406 420-316Z"/><path id="s79" d="M70-530L70 0L200 0L200-300C200-388 240-437 311-437C379-437 402-388 402-300L402 0L531 0L531-341C531-460 467-542 350-542C279-542 219-514 190-444L187-530Z"/><path id="r34" d="M21 0L117 0L187-201L485-201L555 0L651 0L395-710L277-710ZM217-287L336-633L455-287Z"/><path id="r42" d="M92-710L92 0L180 0L180-710Z"/><path id="r83" d="M80-530L80 0L166 0L166-316C166-407 203-454 284-454L336-454L336-530L284-530C215-530 176-500 159-435L156-530Z"/><path id="r68" d="M421-352L511-358C497-472 398-542 290-542C143-542 47-434 47-265C47-96 143 12 290 12C402 12 499-62 516-182L425-188C413-113 356-70 290-70C193-70 137-143 137-265C137-387 193-460 290-460C353-460 410-420 421-352Z"/><path id="r71" d="M131-563L131-530L60-530L60-454L131-454L131 0L217 0L217-454L350-454L350-530L217-530L217-563C217-607 241-634 275-634L357-634L357-710L275-710C176-710 131-652 131-563Z"/><path id="r56" d="M21-710L207 0L317 0L456-531L595 0L705 0L891-710L794-710L651-121L505-710L406-710L261-121L117-710Z"/><path id="r69" d="M519-710L433-710L433-462C404-511 342-542 271-542C133-542 47-435 47-265C47-95 133 12 271 12C345 12 409-21 438-74L441 0L519 0ZM137-265C137-387 196-464 289-464C382-464 441-387 441-265C441-145 382-70 289-70C196-70 137-145 137-265Z"/><path id="r88" d="M456-530L364-530L239-95L114-530L22-530L185 0L293 0L410-400L527 0L635 0L798-530L706-530L581-95Z"/><path id="r15" d="M47-110L47 0L156 0L156-110Z"/><path id="r51" d="M362-710L92-710L92 0L180 0L180-285L353-285C456-285 498-264 504-200L522 0L611 0L591-209C584-284 554-320 484-331C547-349 604-412 604-495C604-627 511-710 362-710ZM180-371L180-624L362-624C458-624 512-578 512-497C512-416 458-371 362-371Z"/><path id="r38" d="M92-710L92 0L547 0L547-86L180-86L180-314L527-314L527-398L180-398L180-624L539-624L539-710Z"/><path id="r72" d="M281-28C348-28 406-63 432-119L432-32C432 41 376 80 283 80C218 80 173 51 151 2L61 8C86 101 170 162 283 162C422 162 518 88 518-52L518-530L436-530L436-448C412-506 352-542 280-542C143-542 47-436 47-285C47-134 144-28 281-28ZM137-285C137-393 194-460 286-460C378-460 435-393 433-285C432-177 375-110 286-110C194-110 137-177 137-285Z"/><path id="r54" d="M613-248L613-711L525-711L525-248C525-134 460-70 345-70C230-70 165-134 165-248L165-711L77-711L77-248C77-86 180 16 345 16C510 16 613-86 613-248Z"/><path id="r13" d="M156 0L156-110L47-110L47 0L88 0L49 155L99 155Z"/><path id="n55" d="M241 0L104 0L28-710L133-710L187-138L254-630L346-630L413-138L467-710L572-710L496 0L359 0L300-432L241 0Z"/><path id="n80" d="M194 0L93 0L93-710L194-710L194-451Q203-474 218-491L218-491Q242-518 276-531Q310-544 351-544L351-544Q407-544 446-519Q484-493 504-448Q523-402 523-343L523-343L523 0L422 0L422-317Q422-389 397-423Q371-456 321-456L321-456Q264-456 229-420Q194-384 194-314L194-314L194 0Z"/><path id="n108" d="M308 12L308 12Q237 12 186-12Q135-36 107-77Q79-117 75-167L75-167L178-173Q186-130 218-105Q250-79 309-79L309-79Q364-79 393-94Q422-109 422-141L422-141Q422-161 412-175Q402-188 375-198Q347-207 294-217L294-217Q215-232 171-253Q126-273 107-305Q88-336 88-381L88-381Q88-427 112-464Q135-501 181-523Q227-544 295-544L295-544Q366-544 412-520Q458-495 484-456Q510-417 517-371L517-371L414-365Q408-391 393-411Q378-430 353-442Q328-453 295-453L295-453Q242-453 217-432Q192-411 192-381L192-381Q192-357 204-343Q216-328 244-319Q272-309 320-300L320-300Q401-287 445-267Q489-246 507-216Q525-186 525-142L525-142Q525-94 498-60Q470-25 422-7Q373 12 308 12Z"/><path id="n93" d="M134 0L36 0L36-532L124-532L127-455Q137-488 157-510L157-510Q186-544 231-544L231-544Q279-544 304-510L304-510Q322-485 330-442L330-442Q341-483 364-509L364-509Q396-544 444-544L444-544Q507-544 536-501Q564-457 564-359L564-359L564 0L466 0L466-342Q466-406 453-431Q439-456 411-456L411-456Q393-456 379-444Q364-432 356-407Q348-381 348-340L348-340L348 0L252 0L252-342Q252-404 240-430Q227-456 198-456L198-456Q179-456 165-444Q151-432 143-407Q134-381 134-340L134-340L134 0Z"/><path id="n31" d="M542 0L98 0L98-710L203-710L203-99L542-99L542 0Z"/><path id="n81" d="M564 0L76 0L76-85L284-85L284-447L86-447L86-532L386-532L386-85L564-85L564 0ZM382-609L278-609L278-714L382-714L382-609Z"/><path id="n116" d="M363 0L237 0L45-532L154-532L300-107L446-532L555-532L363 0Z"/><path id="n22" d="M161 0L56 0L56-710L161-710L161-406L439-406L439-710L544-710L544 0L439 0L439-308L161-308L161 0Z"/><linearGradient id="bg" x1="0" y1="0" x2="1" y2="1"><stop offset="0" stop-color="#0E1C36"/><stop offset="1" stop-color="#0A1427"/></linearGradient><pattern id="grid" width="12" height="12" patternUnits="userSpaceOnUse"><path d="M12 0H0V12" fill="none" stroke="#14243F" stroke-width="1"/></pattern></defs>
<path d="M2 24h14M24 2v14M1184 24h14M1176 2v14M2 376h14M24 384v14M1184 376h14M1176 384v14" stroke="#43567A" stroke-width="1.5"/>
<rect x="24" y="24" width="1152" height="352" rx="18" fill="url(#bg)" stroke="#1F3050" stroke-width="1.5"/>
<rect x="648" y="100" width="488" height="236" rx="12" fill="#0A162C"/><rect x="648" y="100" width="488" height="236" rx="12" fill="url(#grid)" stroke="#1C2C49" stroke-width="1.2"/>
<g transform="translate(64 78) scale(0.015)" fill="#00E5FF"><use xlink:href="#n125" x="0"/><use xlink:href="#n126" x="720"/></g><g transform="translate(97.8 78) scale(0.015)" fill="#7F92AF"><use xlink:href="#n187" x="0"/><use xlink:href="#n32" x="1440"/><use xlink:href="#n57" x="2160"/><use xlink:href="#n47" x="3600"/><use xlink:href="#n48" x="4320"/><use xlink:href="#n1" x="5040"/><use xlink:href="#n46" x="5760"/><use xlink:href="#n48" x="6480"/><use xlink:href="#n49" x="7200"/><use xlink:href="#n43" x="7920"/><use xlink:href="#n179" x="9360"/><use xlink:href="#n1" x="10800"/><use xlink:href="#n23" x="11520"/><use xlink:href="#n46" x="12960"/><use xlink:href="#n15" x="13680"/><use xlink:href="#n11" x="14400"/><use xlink:href="#n15" x="15120"/><use xlink:href="#n43" x="15840"/><use xlink:href="#n48" x="16560"/><use xlink:href="#n23" x="17280"/><use xlink:href="#n35" x="18000"/><use xlink:href="#n33" x="18720"/><use xlink:href="#n23" x="19440"/><use xlink:href="#n47" x="20160"/><use xlink:href="#n48" x="20880"/></g><circle cx="1121" cy="73" r="19" fill="none" stroke="#1F3050" stroke-width="1.5"/><path d="M1116 78L1126 68M1118 68H1126V76" fill="none" stroke="#EAF1FB" stroke-width="1.8" stroke-linecap="round" stroke-linejoin="round"/>

<g class="fade" style="animation-delay:.15s">
  <circle cx="684" cy="128" r="13" fill="#00E5FF"/>
  <g transform="translate(678.65 133) scale(0.015)" fill="#0A162C"><use xlink:href="#s41" x="0"/></g>
  <g transform="translate(706 133) scale(0.016)" fill="#EAF1FB"><use xlink:href="#m41" x="0"/><use xlink:href="#m66" x="709"/><use xlink:href="#m87" x="1270"/><use xlink:href="#m77" x="1832"/><use xlink:href="#m70" x="2122"/><use xlink:href="#m79" x="2698"/></g>
  <circle cx="770" cy="128" r="3.5" fill="#3DDC97"/>
  <g transform="translate(779 132) scale(0.012)" fill="#7F92AF"><use xlink:href="#k96" x="0"/><use xlink:href="#k94" x="600"/><use xlink:href="#k92" x="1200"/><use xlink:href="#k81" x="1800"/><use xlink:href="#k94" x="2400"/><use xlink:href="#k73" x="3000"/></g>
  <g transform="translate(1076 132) scale(0.012)" fill="#7F92AF"><use xlink:href="#k127" x="0"/><use xlink:href="#k128" x="600"/><use xlink:href="#k172" x="1200"/><use xlink:href="#k129" x="1800"/><use xlink:href="#k132" x="2400"/></g>
  <path d="M664 150H1120" stroke="#1C2C49" stroke-width="1.2"/>
</g>
<g class="msg" style="animation-delay:.5s"><rect x="672" y="164" width="267.44" height="34" rx="12" fill="#13284A" stroke="#23395E" stroke-width="1.2"/><g transform="translate(686 186) scale(0.015)" fill="#EAF1FB"><use xlink:href="#r44" x="0"/><use xlink:href="#r90" x="623"/><use xlink:href="#r66" x="1141"/><use xlink:href="#r66" x="1967"/><use xlink:href="#r66" x="2543"/><use xlink:href="#r75" x="3119"/><use xlink:href="#r66" x="3630"/><use xlink:href="#r81" x="4198"/><use xlink:href="#r81" x="4792"/><use xlink:href="#r80" x="5391"/><use xlink:href="#r74" x="5951"/><use xlink:href="#r79" x="6182"/><use xlink:href="#r85" x="6739"/><use xlink:href="#r78" x="7136"/><use xlink:href="#r70" x="7999"/><use xlink:href="#r79" x="8562"/><use xlink:href="#r85" x="9119"/><use xlink:href="#r78" x="9766"/><use xlink:href="#r74" x="10644"/><use xlink:href="#r77" x="10890"/><use xlink:href="#r84" x="11424"/><use xlink:href="#r66" x="11960"/><use xlink:href="#r76" x="12528"/><use xlink:href="#r85" x="13099"/><use xlink:href="#r74" x="13496"/><use xlink:href="#r73" x="13992"/><use xlink:href="#r66" x="14574"/><use xlink:href="#r74" x="15150"/><use xlink:href="#r32" x="15396"/></g><g transform="translate(947.44 186) scale(0.011)" fill="#7F92AF"><use xlink:href="#k127" x="0"/><use xlink:href="#k128" x="600"/><use xlink:href="#k172" x="1200"/><use xlink:href="#k129" x="1800"/><use xlink:href="#k132" x="2400"/></g></g>
<g class="msg" style="animation-delay:1.3s"><rect x="879.65" y="208" width="232.34" height="34" rx="12" fill="rgba(0,229,255,.14)" stroke="rgba(0,229,255,.45)" stroke-width="1.2"/><g transform="translate(893.65 230) scale(0.015)" fill="#EAF1FB"><use xlink:href="#r43" x="0"/><use xlink:href="#r74" x="598"/><use xlink:href="#r67" x="1094"/><use xlink:href="#r74" x="1673"/><use xlink:href="#r77" x="1919"/><use xlink:href="#r76" x="2195"/><use xlink:href="#r86" x="2766"/><use xlink:href="#r77" x="3342"/><use xlink:href="#r2" x="3626"/><use xlink:href="#r22" x="4093"/><use xlink:href="#r27" x="4719"/><use xlink:href="#r17" x="5012"/><use xlink:href="#r17" x="5684"/><use xlink:href="#r81" x="6336"/><use xlink:href="#r78" x="6930"/><use xlink:href="#r90" x="8058"/><use xlink:href="#r66" x="8576"/><use xlink:href="#r23" x="9402"/><use xlink:href="#r27" x="10026"/><use xlink:href="#r20" x="10319"/><use xlink:href="#r17" x="10932"/><use xlink:href="#r81" x="11584"/><use xlink:href="#r78" x="12178"/><use xlink:href="#r32" x="13056"/></g><g transform="translate(838.65 230) scale(0.011)" fill="#7F92AF"><use xlink:href="#k127" x="0"/><use xlink:href="#k128" x="600"/><use xlink:href="#k172" x="1200"/><use xlink:href="#k129" x="1800"/><use xlink:href="#k132" x="2400"/></g></g>
<g class="msg" style="animation-delay:2.1s"><rect x="672" y="252" width="129.88" height="34" rx="12" fill="#13284A" stroke="#23395E" stroke-width="1.2"/><g transform="translate(686 274) scale(0.015)" fill="#EAF1FB"><use xlink:href="#r23" x="0"/><use xlink:href="#r27" x="624"/><use xlink:href="#r20" x="917"/><use xlink:href="#r17" x="1530"/><use xlink:href="#r85" x="2452"/><use xlink:href="#r73" x="2849"/><use xlink:href="#r70" x="3416"/><use xlink:href="#r70" x="3984"/><use xlink:href="#r76" x="4547"/><use xlink:href="#r73" x="5388"/><use xlink:href="#r66" x="5970"/><use xlink:href="#r74" x="6546"/></g><g transform="translate(809.88 274) scale(0.011)" fill="#7F92AF"><use xlink:href="#k127" x="0"/><use xlink:href="#k128" x="600"/><use xlink:href="#k172" x="1200"/><use xlink:href="#k129" x="1800"/><use xlink:href="#k133" x="2400"/></g></g>
<g class="msg" style="animation-delay:2.8s">
  <rect x="773.24" y="298" width="237.52" height="26" rx="13" fill="none" stroke="#00E5FF" stroke-width="1.2"/>
  <path d="M788.24 311l3.5 3.5 7-7" fill="none" stroke="#00E5FF" stroke-width="1.8" stroke-linecap="round" stroke-linejoin="round"/>
  <g transform="translate(805.24 315) scale(0.012)" fill="#00E5FF"><use xlink:href="#n68" x="0"/><use xlink:href="#n96" x="640"/><use xlink:href="#n96" x="1280"/><use xlink:href="#n91" x="1920"/><use xlink:href="#n73" x="2560"/><use xlink:href="#n71" x="3200"/><use xlink:href="#n179" x="4480"/><use xlink:href="#n69" x="5760"/><use xlink:href="#n60" x="6400"/><use xlink:href="#n92" x="7040"/><use xlink:href="#n73" x="7680"/><use xlink:href="#n94" x="8320"/><use xlink:href="#n71" x="8960"/><use xlink:href="#n60" x="9600"/><use xlink:href="#n107" x="10240"/><use xlink:href="#n111" x="11520"/><use xlink:href="#n104" x="12160"/><use xlink:href="#n71" x="12800"/><use xlink:href="#n60" x="13440"/><use xlink:href="#n110" x="14080"/><use xlink:href="#n73" x="14720"/><use xlink:href="#n71" x="15360"/></g>
</g>
<g transform="translate(62 152) scale(0.046)" fill="#EAF1FB"><use xlink:href="#s41" x="0"/><use xlink:href="#s66" x="683"/><use xlink:href="#s87" x="1226"/><use xlink:href="#s77" x="1782"/><use xlink:href="#s70" x="2056"/><use xlink:href="#s79" x="2614"/></g><g transform="translate(64 194) scale(0.021)" fill="#B3C1D6"><use xlink:href="#r34" x="0"/><use xlink:href="#r79" x="672"/><use xlink:href="#r34" x="1504"/><use xlink:href="#r42" x="2176"/><use xlink:href="#r83" x="2698"/><use xlink:href="#r70" x="3041"/><use xlink:href="#r68" x="3609"/><use xlink:href="#r70" x="4162"/><use xlink:href="#r81" x="4725"/><use xlink:href="#r85" x="5294"/><use xlink:href="#r74" x="5691"/><use xlink:href="#r80" x="5937"/><use xlink:href="#r79" x="6512"/><use xlink:href="#r74" x="7094"/><use xlink:href="#r84" x="7340"/><use xlink:href="#r85" x="7841"/><use xlink:href="#r71" x="8488"/><use xlink:href="#r80" x="8857"/><use xlink:href="#r83" x="9432"/><use xlink:href="#r56" x="10065"/><use xlink:href="#r73" x="10977"/><use xlink:href="#r66" x="11559"/><use xlink:href="#r85" x="12085"/><use xlink:href="#r84" x="12467"/><use xlink:href="#r34" x="12988"/><use xlink:href="#r81" x="13660"/><use xlink:href="#r81" x="14254"/><use xlink:href="#r66" x="15103"/><use xlink:href="#r79" x="15671"/><use xlink:href="#r69" x="16238"/><use xlink:href="#r85" x="17087"/><use xlink:href="#r73" x="17484"/><use xlink:href="#r70" x="18051"/><use xlink:href="#r88" x="18869"/><use xlink:href="#r70" x="19664"/><use xlink:href="#r67" x="20212"/><use xlink:href="#r15" x="20811"/></g><g transform="translate(64 225) scale(0.021)" fill="#B3C1D6"><use xlink:href="#r51" x="0"/><use xlink:href="#r70" x="658"/><use xlink:href="#r81" x="1221"/><use xlink:href="#r77" x="1820"/><use xlink:href="#r74" x="2104"/><use xlink:href="#r70" x="2350"/><use xlink:href="#r84" x="2918"/><use xlink:href="#r74" x="3699"/><use xlink:href="#r79" x="3930"/><use xlink:href="#r38" x="4762"/><use xlink:href="#r79" x="5366"/><use xlink:href="#r72" x="5933"/><use xlink:href="#r77" x="6531"/><use xlink:href="#r74" x="6815"/><use xlink:href="#r84" x="7061"/><use xlink:href="#r73" x="7587"/><use xlink:href="#r80" x="8419"/><use xlink:href="#r83" x="8994"/><use xlink:href="#r51" x="9627"/><use xlink:href="#r80" x="10285"/><use xlink:href="#r78" x="10860"/><use xlink:href="#r66" x="11738"/><use xlink:href="#r79" x="12306"/><use xlink:href="#r54" x="13138"/><use xlink:href="#r83" x="13828"/><use xlink:href="#r69" x="14171"/><use xlink:href="#r86" x="14750"/><use xlink:href="#r13" x="15326"/><use xlink:href="#r67" x="15779"/><use xlink:href="#r80" x="16378"/><use xlink:href="#r80" x="16958"/><use xlink:href="#r76" x="17533"/><use xlink:href="#r84" x="18074"/><use xlink:href="#r83" x="18855"/><use xlink:href="#r70" x="19198"/><use xlink:href="#r66" x="19771"/><use xlink:href="#r77" x="20347"/></g><g transform="translate(64 256) scale(0.021)" fill="#B3C1D6"><use xlink:href="#r66" x="0"/><use xlink:href="#r81" x="568"/><use xlink:href="#r81" x="1162"/><use xlink:href="#r80" x="1761"/><use xlink:href="#r74" x="2321"/><use xlink:href="#r79" x="2552"/><use xlink:href="#r85" x="3109"/><use xlink:href="#r78" x="3506"/><use xlink:href="#r70" x="4369"/><use xlink:href="#r79" x="4932"/><use xlink:href="#r85" x="5489"/><use xlink:href="#r84" x="5871"/><use xlink:href="#r66" x="6652"/><use xlink:href="#r79" x="7220"/><use xlink:href="#r69" x="7787"/><use xlink:href="#r76" x="8636"/><use xlink:href="#r79" x="9227"/><use xlink:href="#r80" x="9794"/><use xlink:href="#r88" x="10349"/><use xlink:href="#r84" x="11144"/><use xlink:href="#r88" x="11925"/><use xlink:href="#r73" x="12745"/><use xlink:href="#r70" x="13312"/><use xlink:href="#r79" x="13875"/><use xlink:href="#r85" x="14707"/><use xlink:href="#r80" x="15089"/><use xlink:href="#r71" x="15919"/><use xlink:href="#r70" x="16288"/><use xlink:href="#r85" x="16826"/><use xlink:href="#r68" x="17208"/><use xlink:href="#r73" x="17756"/><use xlink:href="#r66" x="18588"/><use xlink:href="#r73" x="19414"/><use xlink:href="#r86" x="19981"/><use xlink:href="#r78" x="20557"/><use xlink:href="#r66" x="21435"/><use xlink:href="#r79" x="22003"/><use xlink:href="#r15" x="22585"/></g>
<rect x="64" y="302" width="99.12" height="34" rx="17" fill="#10213D" stroke="#25395C" stroke-width="1.2"/><g transform="translate(78 324) scale(0.014)" fill="#B3C1D6"><use xlink:href="#n55" x="0"/><use xlink:href="#n80" x="640"/><use xlink:href="#n60" x="1280"/><use xlink:href="#n110" x="1920"/><use xlink:href="#n108" x="2560"/><use xlink:href="#n1" x="3200"/><use xlink:href="#n104" x="3840"/><use xlink:href="#n104" x="4480"/></g><rect x="173.12" y="302" width="117.04" height="34" rx="17" fill="#10213D" stroke="#25395C" stroke-width="1.2"/><g transform="translate(187.12 324) scale(0.014)" fill="#B3C1D6"><use xlink:href="#n46" x="0"/><use xlink:href="#n96" x="640"/><use xlink:href="#n93" x="1280"/><use xlink:href="#n60" x="1920"/><use xlink:href="#n94" x="2560"/><use xlink:href="#n49" x="3840"/><use xlink:href="#n107" x="4480"/><use xlink:href="#n71" x="5120"/><use xlink:href="#n111" x="5760"/></g><rect x="300.16" y="302" width="143.92" height="34" rx="17" fill="#10213D" stroke="#25395C" stroke-width="1.2"/><g transform="translate(314.16 324) scale(0.014)" fill="#B3C1D6"><use xlink:href="#n31" x="0"/><use xlink:href="#n81" x="640"/><use xlink:href="#n116" x="1280"/><use xlink:href="#n73" x="1920"/><use xlink:href="#n69" x="3200"/><use xlink:href="#n60" x="3840"/><use xlink:href="#n92" x="4480"/><use xlink:href="#n73" x="5120"/><use xlink:href="#n94" x="5760"/><use xlink:href="#n71" x="6400"/><use xlink:href="#n60" x="7040"/><use xlink:href="#n107" x="7680"/></g><rect x="454.08" y="302" width="152.88" height="34" rx="17" fill="#10213D" stroke="#25395C" stroke-width="1.2"/><g transform="translate(468.08 324) scale(0.014)" fill="#B3C1D6"><use xlink:href="#n22" x="0"/><use xlink:href="#n111" x="640"/><use xlink:href="#n93" x="1280"/><use xlink:href="#n60" x="1920"/><use xlink:href="#n94" x="2560"/><use xlink:href="#n80" x="3840"/><use xlink:href="#n60" x="4480"/><use xlink:href="#n94" x="5120"/><use xlink:href="#n71" x="5760"/><use xlink:href="#n96" x="6400"/><use xlink:href="#n116" x="7040"/><use xlink:href="#n73" x="7680"/><use xlink:href="#n107" x="8320"/></g></svg>
